<svg width="500" height="500" viewBox="0 0 500 500" fill="none" xmlns="http://www.w3.org/2000/svg">
<g clip-path="url(#clip0_6_2)">
<mask id="mask0_6_2" style="mask-type:luminance" maskUnits="userSpaceOnUse" x="25" y="25" width="450" height="450">
<path d="M25 25H475V475H25V25Z" fill="white"/>
</mask>
<g mask="url(#mask0_6_2)">
<mask id="mask1_6_2" style="mask-type:luminance" maskUnits="userSpaceOnUse" x="24" y="25" width="451" height="451">
<path d="M249.388 25.328C125.125 25.328 24.388 126.065 24.388 250.328C24.388 374.591 125.125 475.328 249.388 475.328C373.651 475.328 474.388 374.591 474.388 250.328C474.388 126.065 373.651 25.328 249.388 25.328Z" fill="white"/>
</mask>
<g mask="url(#mask1_6_2)">
<path d="M24.388 25.328H474.388V475.328H24.388V25.328Z" fill="url(#paint0_linear_6_2)"/>
</g>
</g>
<path d="M387.535 204.976C374.541 189.012 354.038 179.853 331.352 179.853H269.42L250.489 224.159L195.595 224.178L121.003 400H195.891L248.566 275.871H304.233C321.78 275.871 337.616 266.35 343.597 252.219C344.583 249.925 345.099 247.488 345.099 245.013C345.099 239.275 342.378 234.062 337.967 230.277C337.147 229.574 336.253 228.908 335.317 228.304C334.073 227.501 332.712 226.795 331.304 226.212C328.114 224.883 324.525 224.139 320.749 224.139H282.957L282.933 224.159L276.131 240.241L276.107 240.262H320.749C322.273 240.262 323.518 240.746 324.454 241.47C324.596 241.551 324.736 241.671 324.831 241.791C325.815 242.698 326.331 243.886 326.331 245.013C326.331 245.576 326.215 246.119 325.98 246.683C322.648 254.493 313.923 259.767 304.233 259.767H235.428L182.752 383.896H147.804L208.731 240.262L263.648 240.241L282.533 195.957H331.352C347.844 195.957 362.715 202.62 372.171 214.216C381.602 225.788 383.783 240.04 378.13 253.346L375.174 260.33C364.052 286.48 334.8 304.053 302.356 304.053H249.081L242.254 320.155H302.356C342.634 320.155 378.997 298.315 392.814 265.826L395.746 258.862C403.534 240.565 400.531 220.938 387.535 204.976Z" fill="url(#paint1_linear_6_2)"/>
<path d="M149.217 304.053H126.79L206.455 116.104H356.358L344.395 144.284H229.445L207.536 195.957H250.043L256.424 181.041L256.941 179.853H256.424H234.349L242.607 160.388H357.555L383.171 100H193.343L100 320.155H142.39L149.217 304.053Z" fill="url(#paint2_linear_6_2)"/>
</g>
<defs>
<linearGradient id="paint0_linear_6_2" x1="249.388" y1="25.328" x2="249.388" y2="475.328" gradientUnits="userSpaceOnUse">
<stop stop-color="#2C2828"/>
<stop offset="1" stop-color="#2C2828"/>
</linearGradient>
<linearGradient id="paint1_linear_6_2" x1="260.501" y1="400" x2="260.501" y2="179.853" gradientUnits="userSpaceOnUse">
<stop stop-color="#F7931A"/>
<stop offset="1" stop-color="#C46D13"/>
</linearGradient>
<linearGradient id="paint2_linear_6_2" x1="241.586" y1="320.155" x2="241.586" y2="100" gradientUnits="userSpaceOnUse">
<stop stop-color="#F7931A"/>
<stop offset="1" stop-color="#C46D13"/>
</linearGradient>
<clipPath id="clip0_6_2">
<rect width="500" height="500" fill="white"/>
</clipPath>
</defs>
</svg>
